<svg width="47" height="47" viewBox="0 0 47 47" fill="none" xmlns="http://www.w3.org/2000/svg">
    <g id="Group 10502">
        <path id="Vector"
              d="M23.5 47C36.4787 47 47 36.4787 47 23.5C47 10.5213 36.4787 0 23.5 0C10.5213 0 0 10.5213 0 23.5C0 36.4787 10.5213 47 23.5 47Z"
              fill="#EE404C"/>
        <path id="Vector_2"
              d="M14.0901 32.8478C14.3331 33.0941 14.6225 33.2897 14.9417 33.4232C15.2608 33.5567 15.6033 33.6255 15.9493 33.6255C16.2952 33.6255 16.6377 33.5567 16.9569 33.4232C17.276 33.2897 17.5654 33.0941 17.8084 32.8478L23.4379 27.2183L29.0675 32.8478C29.5605 33.3409 30.2293 33.6179 30.9266 33.6179C31.6239 33.6179 32.2926 33.3409 32.7857 32.8478C33.2788 32.3548 33.5558 31.686 33.5558 30.9887C33.5558 30.2914 33.2788 29.6227 32.7857 29.1296L27.1561 23.5L32.7857 17.8705C33.0298 17.6264 33.2235 17.3365 33.3556 17.0175C33.4878 16.6985 33.5558 16.3567 33.5558 16.0114C33.5558 15.6661 33.4878 15.3242 33.3556 15.0052C33.2235 14.6863 33.0298 14.3964 32.7857 14.1523C32.5416 13.9081 32.2517 13.7145 31.9327 13.5823C31.6137 13.4502 31.2719 13.3822 30.9266 13.3822C30.5813 13.3822 30.2394 13.4502 29.9204 13.5823C29.6015 13.7145 29.3116 13.9081 29.0675 14.1523L23.4379 19.7818L17.8084 14.1523C17.5642 13.9081 17.2744 13.7145 16.9554 13.5823C16.6364 13.4502 16.2945 13.3822 15.9493 13.3822C15.604 13.3822 15.2621 13.4502 14.9431 13.5823C14.6241 13.7145 14.3343 13.9081 14.0901 14.1523C13.846 14.3964 13.6523 14.6863 13.5202 15.0052C13.3881 15.3242 13.3201 15.6661 13.3201 16.0114C13.3201 16.3567 13.3881 16.6985 13.5202 17.0175C13.6523 17.3365 13.846 17.6264 14.0901 17.8705L19.7197 23.5L14.0901 29.1296C13.8438 29.3725 13.6482 29.662 13.5147 29.9811C13.3812 30.3003 13.3125 30.6428 13.3125 30.9887C13.3125 31.3347 13.3812 31.6772 13.5147 31.9963C13.6482 32.3155 13.8438 32.6049 14.0901 32.8478Z"
              fill="white"/>
    </g>
</svg>
