<svg width="10" height="12" viewBox="0 0 10 12" fill="none" xmlns="http://www.w3.org/2000/svg">
<g id="padlock (2)">
<path id="Path 2572" d="M9.75711 5.69476C9.67997 5.61719 9.58794 5.55603 9.48654 5.51495C9.38515 5.47388 9.27649 5.45374 9.16711 5.45576H8.88911V3.81976C8.89479 3.31602 8.79587 2.81659 8.59861 2.35304C8.40135 1.8895 8.11004 1.47194 7.74311 1.12676C7.01207 0.406011 6.02671 0.00195313 5.00011 0.00195312C3.97351 0.00195312 2.98816 0.406011 2.25711 1.12676C1.89018 1.47194 1.59888 1.8895 1.40162 2.35304C1.20436 2.81659 1.10544 3.31602 1.11111 3.81976V5.45676H0.833114C0.723735 5.45474 0.615081 5.47488 0.513686 5.51595C0.412292 5.55703 0.320253 5.61819 0.243114 5.69576C0.164673 5.77035 0.102573 5.86042 0.0607443 5.96026C0.0189157 6.06009 -0.00173042 6.16753 0.000113472 6.27576V11.1848C-0.00173042 11.293 0.0189157 11.4004 0.0607443 11.5003C0.102573 11.6001 0.164673 11.6902 0.243114 11.7648C0.320288 11.8423 0.41233 11.9034 0.513717 11.9445C0.615103 11.9856 0.723742 12.0057 0.833114 12.0038H9.16611C9.27549 12.0058 9.38415 11.9856 9.48555 11.9446C9.58694 11.9035 9.67897 11.8423 9.75611 11.7648C9.83451 11.6901 9.89657 11.6001 9.9384 11.5002C9.98022 11.4004 10.0009 11.293 9.99911 11.1848V6.27476C10.0011 6.16659 9.98069 6.05919 9.93903 5.95934C9.89737 5.8595 9.83542 5.7694 9.75711 5.69476ZM7.22711 5.45676H2.78311V3.81976C2.77895 3.53152 2.83466 3.24555 2.94672 2.97995C3.05877 2.71436 3.22474 2.47491 3.43412 2.27676C3.85447 1.86713 4.41818 1.63789 5.00511 1.63789C5.59205 1.63789 6.15576 1.86713 6.57611 2.27676C6.78549 2.47491 6.95146 2.71436 7.06351 2.97995C7.17557 3.24555 7.23128 3.53152 7.22711 3.81976V5.45676Z" fill="#000300"/>
</g>
</svg>
